<svg aria-hidden="true" style="position: absolute; width: 0; height: 0; overflow: hidden;" version="1.1" xmlns="http://www.w3.org/2000/svg" xmlns:xlink="http://www.w3.org/1999/xlink">
<defs>
<symbol id="braces" viewBox="0 0 32 32">
<path d="M20.571 14.771c0-0.349 0.157-0.661 0.403-0.871l0.002-0.001 11.024-9.328v21.714c0 0.631-0.512 1.143-1.143 1.143v0h-9.143c-0.631 0-1.143-0.512-1.143-1.143v0-11.514zM0 14.771c0-0.349 0.157-0.661 0.403-0.871l0.002-0.001 11.024-9.328v21.714c0 0.631-0.512 1.143-1.143 1.143v0h-9.143c-0.631 0-1.143-0.512-1.143-1.143v0-11.514z"></path>
</symbol>
<symbol id="Chat" viewBox="0 0 32 32">
<path d="M29.231 14.089c-0.21 1.394-0.67 2.647-1.333 3.764l0.026-0.048c0.050 0.285 0.076 0.573 0.076 0.862 0 1.004-0.291 1.965-0.83 2.838-0.27 0.435-0.338 0.946-0.365 1.283-0.030 0.386-0.021 0.81 0.007 1.216 0.031 0.456 0.087 0.934 0.151 1.386-0.52-0.152-1.085-0.304-1.623-0.426-0.36-0.090-0.808-0.171-1.265-0.225l-0.055-0.005c-0.362-0.037-0.886-0.066-1.354 0.086-0.986 0.326-2.122 0.514-3.301 0.514-0.012 0-0.023-0-0.035-0h0.002c-1.41 0-2.706-0.25-3.842-0.685-0.273 0.012-0.548 0.018-0.825 0.018-0.009 0-0.019 0-0.030 0-1.625 0-3.198-0.22-4.693-0.631l0.124 0.029c2.102 2.432 5.569 3.935 9.265 3.935 1.444 0 2.83-0.222 4.107-0.629h0.012c0.033-0.002 0.124-0.003 0.294 0.014 0.267 0.028 0.611 0.090 1.008 0.179 0.79 0.178 1.677 0.441 2.369 0.66 1.467 0.466 2.888-0.814 2.626-2.302-0.113-0.641-0.23-1.422-0.276-2.1-0.012-0.144-0.020-0.312-0.020-0.481 0-0.121 0.004-0.241 0.011-0.361l-0.001 0.016c0.006-0.085 0.015-0.138 0.021-0.166 0.75-1.242 1.182-2.658 1.182-4.164 0-1.698-0.528-3.248-1.435-4.578z"></path>
<path d="M7.462 7.598c-1.798 1.374-2.796 3.178-2.796 5.069 0 0.942 0.245 1.85 0.706 2.695 0.176 0.322 0.225 0.653 0.243 0.878 0.019 0.245 0.010 0.496-0.012 0.732-0.042 0.471-0.144 1.005-0.266 1.53-0.2 0.852-0.375 1.483-0.57 2.107l0.059-0.219c0.704-0.256 1.474-0.518 2.204-0.731 0.461-0.147 1.039-0.288 1.629-0.393l0.087-0.013c0.456-0.072 1.12-0.143 1.69 0.054 1.28 0.443 2.713 0.694 4.231 0.694 2.862 0 5.406-0.889 7.204-2.264 1.797-1.375 2.796-3.179 2.796-5.070s-0.999-3.694-2.796-5.069c-1.798-1.376-4.342-2.264-7.204-2.264s-5.406 0.888-7.204 2.264zM5.842 5.479c2.304-1.762 5.427-2.813 8.824-2.813s6.52 1.051 8.824 2.813c2.304 1.762 3.842 4.291 3.842 7.187s-1.538 5.425-3.843 7.187c-2.303 1.762-5.427 2.813-8.824 2.813-1.79 0-3.501-0.292-5.054-0.823-0.002 0.005-0.128-0.008-0.45 0.043-0.371 0.058-0.846 0.174-1.385 0.331-1.074 0.314-2.28 0.757-3.198 1.114-1.592 0.619-3.213-0.91-2.677-2.538 0.284-0.863 0.619-1.954 0.838-2.895 0.11-0.474 0.182-0.873 0.208-1.168 0.007-0.068 0.011-0.148 0.011-0.228 0-0 0-0 0-0v0c-0.601-1.111-0.955-2.432-0.958-3.836v-0.001c0-2.896 1.538-5.425 3.843-7.187zM2.954 16.43l0.002 0.011c-0.001-0.003-0.001-0.007-0.002-0.011v-0z"></path>
</symbol>
<symbol id="check-components-icon" viewBox="0 0 32 32">
<path d="M16 30.667c8.088 0 14.667-6.579 14.667-14.666 0-1.397-0.195-2.773-0.581-4.090-0.153-0.512-0.62-0.879-1.173-0.879-0.675 0-1.222 0.547-1.222 1.222 0 0.122 0.018 0.24 0.051 0.352l-0.002-0.009c0.32 1.094 0.483 2.24 0.483 3.403 0 6.739-5.483 12.222-12.224 12.222-6.738 0-12.221-5.483-12.221-12.224 0-6.738 5.483-12.221 12.222-12.221 2.448 0 4.805 0.715 6.814 2.070 0.19 0.127 0.423 0.203 0.674 0.203 0.675 0 1.222-0.547 1.222-1.222 0-0.416-0.208-0.784-0.526-1.005l-0.004-0.003c-2.285-1.558-5.106-2.488-8.145-2.488-0.013 0-0.026 0-0.039 0h0.002c-8.086 0-14.666 6.579-14.666 14.667 0 8.086 6.579 14.666 14.667 14.666z"></path>
<path d="M29.725 3.058l-13.723 13.723-4.392-4.389c-0.24-0.237-0.57-0.383-0.935-0.383-0.736 0-1.333 0.597-1.333 1.333 0 0.364 0.146 0.694 0.383 0.935l5.333 5.333c0.241 0.243 0.574 0.393 0.943 0.393s0.702-0.15 0.943-0.393l14.666-14.666c0.242-0.241 0.391-0.575 0.391-0.943 0-0.736-0.597-1.333-1.333-1.333-0.368 0-0.701 0.149-0.942 0.39v0z"></path>
</symbol>
<symbol id="checked" viewBox="0 0 32 32">
<path d="M25.656 8.39c0.46 0.52 0.46 1.366 0 1.886l-11.766 13.334c-0.2 0.24-0.498 0.391-0.832 0.391s-0.632-0.152-0.831-0.39l-0.001-0.002-5.88-6.67c-0.214-0.253-0.344-0.582-0.344-0.942s0.13-0.689 0.346-0.944l-0.002 0.002c0.199-0.239 0.498-0.39 0.831-0.39s0.631 0.151 0.83 0.388l0.001 0.002 5.052 5.724 10.934-12.39c0.2-0.24 0.498-0.391 0.832-0.391s0.632 0.152 0.831 0.39l0.001 0.002z"></path>
</symbol>
<symbol id="client-logo-1" viewBox="0 0 32 32">
<path d="M-2.133 2.4h35.2v27.2h-35.2z"></path>
</symbol>
<symbol id="client-logo-2" viewBox="0 0 32 32">
<path d="M-4.267 1.067h38.933v29.867h-38.933z"></path>
</symbol>
<symbol id="client-logo-3" viewBox="0 0 32 32">
<path d="M-5.6-0.533h43.2v33.067h-43.2z"></path>
</symbol>
<symbol id="client-logo-4" viewBox="0 0 32 32">
<path d="M-6.667-1.333h45.333v34.667h-45.333z"></path>
</symbol>
<symbol id="client-logo-5" viewBox="0 0 32 32">
<path d="M-7.733-2.133h47.467v36.267h-47.467z"></path>
</symbol>
<symbol id="client-logo-6" viewBox="0 0 32 32">
<path d="M-4.8 0h41.6v32h-41.6z"></path>
</symbol>
<symbol id="client-logo-7" viewBox="0 0 32 32">
<path d="M-3.467 0.8h39.467v30.4h-39.467z"></path>
</symbol>
<symbol id="client-logo-8" viewBox="0 0 32 32">
<path d="M-9.067-3.2h50.133v38.4h-50.133z"></path>
</symbol>
<symbol id="client-logo-9" viewBox="0 0 32 32">
<path d="M-4.533 0h41.6v32h-41.6z"></path>
</symbol>
<symbol id="client-logo-10" viewBox="0 0 32 32">
<path d="M-6.4-1.867h46.4v35.733h-46.4z"></path>
</symbol>
<symbol id="client-logo-11" viewBox="0 0 32 32">
<path d="M-12.267-6.667h57.6v44.267h-57.6z"></path>
</symbol>
<symbol id="client-logo-12" viewBox="0 0 32 32">
<path d="M-4.8 0h41.6v32h-41.6z"></path>
</symbol>
<symbol id="Facebook-32" viewBox="0 0 32 32">
<path d="M23.418 1.34l-3.703-0.006c-4.16 0-6.849 2.833-6.849 7.219v3.328h-3.723c-0.322 0.004-0.582 0.267-0.582 0.59 0 0.003 0 0.006 0 0.010v-0 4.822c0 0.33 0.26 0.598 0.582 0.598h3.723v12.17c0 0.33 0.26 0.597 0.582 0.597h4.858c0.322-0.004 0.582-0.267 0.582-0.59 0-0.003-0-0.006-0-0.008v0-12.169h4.354c0.322-0.004 0.582-0.267 0.582-0.59 0-0.003-0-0.006-0-0.008v0l0.002-4.822c0-0.001 0-0.001 0-0.002 0-0.164-0.065-0.312-0.17-0.421l0 0c-0.104-0.108-0.251-0.176-0.413-0.176h-4.355v-2.821c0-1.356 0.315-2.045 2.035-2.045h2.494c0.323-0.004 0.583-0.267 0.583-0.59 0-0.004-0-0.007-0-0.011v0.001-4.477c0-0.002 0-0.005 0-0.008 0-0.323-0.259-0.585-0.581-0.59h-0z"></path>
</symbol>
<symbol id="Facebook-ft" viewBox="0 0 32 32">
<path d="M23.417 1.34l-3.703-0.007c-4.16 0-6.849 2.833-6.849 7.219v3.329h-3.723c-0.323 0-0.583 0.267-0.583 0.597v4.823c0 0.331 0.261 0.599 0.583 0.599h3.723v12.168c0 0.331 0.26 0.599 0.583 0.599h4.857c0.323-0.004 0.583-0.267 0.583-0.591 0-0.003-0-0.006-0-0.008v0-12.168h4.353c0.321 0 0.581-0.267 0.581-0.599l0.003-4.823c0-0 0-0 0-0 0-0.164-0.065-0.313-0.171-0.423l0 0c-0.105-0.108-0.251-0.175-0.413-0.175-0 0-0 0-0.001 0h-4.353v-2.823c0-1.356 0.315-2.044 2.033-2.044h2.495c0.321 0 0.583-0.269 0.583-0.6v-4.476c0-0.002 0-0.004 0-0.007 0-0.323-0.259-0.585-0.581-0.591h-0z"></path>
</symbol>
<symbol id="Facebook-tm" viewBox="0 0 32 32">
<path d="M23.416 1.341l-3.702-0.006c-4.16 0-6.848 2.832-6.848 7.219v3.328h-3.723c-0.323 0.004-0.582 0.267-0.582 0.59 0 0.003 0 0.006 0 0.008v-0 4.822c0 0.331 0.261 0.598 0.582 0.598h3.722v12.17c0 0.33 0.259 0.597 0.581 0.597h4.859c0.323-0.005 0.582-0.267 0.582-0.59 0-0.002 0-0.005-0-0.007v0-12.17h4.352c0.323-0.004 0.582-0.267 0.582-0.59 0-0.003-0-0.006-0-0.008v0l0.003-4.822c0-0 0-0.001 0-0.001 0-0.164-0.065-0.312-0.17-0.421l0 0c-0.105-0.108-0.251-0.176-0.413-0.176h-4.354v-2.821c0-1.357 0.314-2.045 2.032-2.045h2.496c0.32 0 0.582-0.269 0.582-0.6v-4.477c0-0.002 0-0.004 0-0.006 0-0.324-0.26-0.587-0.582-0.592h-0z"></path>
</symbol>
<symbol id="Facebook" viewBox="0 0 32 32">
<path d="M23.417 1.34l-3.703-0.007c-4.16 0-6.849 2.833-6.849 7.219v3.329h-3.723c-0.323 0-0.583 0.267-0.583 0.597v4.823c0 0.331 0.261 0.599 0.583 0.599h3.723v12.168c0 0.331 0.26 0.599 0.583 0.599h4.857c0.323-0.004 0.583-0.267 0.583-0.591 0-0.003-0-0.006-0-0.008v0-12.168h4.353c0.321 0 0.581-0.267 0.581-0.599l0.003-4.823c0-0 0-0 0-0 0-0.164-0.065-0.313-0.171-0.423l0 0c-0.105-0.108-0.251-0.175-0.413-0.175-0 0-0 0-0.001 0h-4.353v-2.823c0-1.356 0.315-2.044 2.033-2.044h2.495c0.321 0 0.583-0.269 0.583-0.6v-4.476c0-0.002 0-0.004 0-0.007 0-0.323-0.259-0.585-0.581-0.591h-0z"></path>
</symbol>
<symbol id="heart-icon" viewBox="0 0 32 32">
<path d="M16 26.542c-6.136-3.492-9.556-6.962-11.21-9.974-1.692-3.084-1.544-5.68-0.606-7.522 1.932-3.788 7.42-5 10.766-0.768l1.050 1.322 1.046-1.322c3.346-4.232 8.836-3.020 10.766 0.768 0.94 1.842 1.088 4.44-0.606 7.52-1.652 3.014-5.074 6.484-11.206 9.978zM16 5.474c-4.71-4.47-11.65-2.622-14.192 2.36-1.392 2.736-1.408 6.27 0.648 10.016 2.038 3.714 6.104 7.634 12.898 11.388l0.644 0.358 0.646-0.358c6.794-3.754 10.86-7.674 12.9-11.388 2.056-3.746 2.036-7.28 0.642-10.016-2.54-4.982-9.48-6.83-14.186-2.36z"></path>
</symbol>
<symbol id="ic-brain" viewBox="0 0 32 32">
<path d="M32 16c0-0.003 0-0.006 0-0.010 0-2.365-1.266-4.434-3.157-5.567l-0.029-0.016c0.079-0.307 0.125-0.66 0.125-1.024 0-0.646-0.144-1.257-0.401-1.806l0.011 0.026c-0.436-0.945-1.18-1.687-2.1-2.11l-0.026-0.011c-0.1-1.427-0.698-2.698-1.619-3.655l0.002 0.002c-1.069-1.128-2.578-1.829-4.25-1.829-0.008 0-0.017 0-0.025 0h0.001c-1.816 0.002-3.439 0.821-4.524 2.109l-0.007 0.009c-1.092-1.297-2.716-2.116-4.531-2.118h-0c-0.007-0-0.015-0-0.023-0-1.673 0-3.182 0.702-4.249 1.827l-0.002 0.003c-0.919 0.956-1.517 2.226-1.617 3.634l-0.001 0.019c-0.947 0.434-1.691 1.175-2.116 2.094l-0.011 0.026c-0.246 0.522-0.389 1.133-0.389 1.779 0 0.364 0.046 0.717 0.131 1.054l-0.006-0.029c-1.92 1.149-3.186 3.219-3.186 5.583 0 0.004 0 0.007 0 0.011v-0.001c0 0.003 0 0.006 0 0.010 0 2.365 1.266 4.434 3.157 5.567l0.029 0.016c-0.079 0.307-0.125 0.66-0.125 1.024 0 0.645 0.144 1.257 0.401 1.806l-0.011-0.026c0.436 0.945 1.18 1.687 2.1 2.11l0.026 0.011c0.1 1.427 0.698 2.698 1.619 3.655l-0.002-0.002c1.069 1.128 2.578 1.829 4.251 1.829 0.008 0 0.017-0 0.025-0h-0.001c1.816-0.002 3.439-0.821 4.524-2.109l0.007-0.009c1.092 1.297 2.716 2.116 4.531 2.118h0c0.007 0 0.015 0 0.023 0 1.673 0 3.182-0.702 4.249-1.827l0.002-0.003c0.919-0.956 1.517-2.226 1.617-3.634l0.001-0.019c0.947-0.434 1.691-1.175 2.116-2.094l0.011-0.026c0.246-0.522 0.389-1.134 0.389-1.779 0-0.364-0.046-0.717-0.131-1.054l0.006 0.029c1.92-1.149 3.186-3.219 3.186-5.583 0-0.003 0-0.007 0-0.011v0.001zM27.466 20.187h-4.466v-2.694h3.313c0.517 0 0.937-0.42 0.937-0.937v-2.743c0-0.518-0.42-0.938-0.938-0.938s-0.938 0.42-0.938 0.938v0 1.805h-2.375v-1.625c-0.001-1.035-0.84-1.874-1.875-1.875h-1.875c-0.518 0-0.938 0.42-0.938 0.938s0.42 0.938 0.938 0.938h1.875v6.195h-4.188v-1.688c0-0.518-0.42-0.938-0.938-0.938s-0.938 0.42-0.938 0.938v0 1.687c0.001 1.035 0.84 1.874 1.875 1.875h10.060c0.041 0.167 0.065 0.358 0.065 0.555 0 0.362-0.081 0.706-0.225 1.014l0.006-0.015c-0.301 0.655-0.872 1.142-1.566 1.324l-0.017 0.004c-0.409 0.107-0.705 0.473-0.705 0.908 0 0.016 0 0.032 0.001 0.047l-0-0.002c0.003 0.062 0.005 0.134 0.005 0.207 0 1.076-0.425 2.053-1.116 2.772l0.001-0.001c-0.73 0.77-1.759 1.249-2.901 1.249-0.005 0-0.011 0-0.016-0h0.001c-1.559-0.002-2.91-0.887-3.583-2.181l-0.011-0.022v-1.984h1.687c0.518 0 0.937-0.42 0.937-0.937s-0.42-0.937-0.937-0.937h-1.687c-1.035 0.001-1.874 0.84-1.875 1.875v1.984c-0.683 1.317-2.034 2.202-3.593 2.204h-0c-0.005 0-0.010 0-0.016 0-1.142 0-2.172-0.479-2.9-1.248l-0.002-0.002c-0.528-0.549-0.901-1.251-1.046-2.033l-0.004-0.025h2.247c1.035-0.001 1.874-0.84 1.875-1.875v-1.159h0.812c0.518 0 0.938-0.42 0.938-0.938s-0.42-0.938-0.938-0.938h-0.812v-1.159c-0.001-1.035-0.84-1.874-1.875-1.875h-1.625c-0.518 0-0.938 0.42-0.938 0.938s0.42 0.938 0.938 0.938h1.625v4.193s-3.009 0.002-3.011 0.001c-0.711-0.186-1.281-0.672-1.577-1.312l-0.006-0.015c-0.139-0.293-0.22-0.637-0.22-1 0-0.389 0.093-0.757 0.259-1.082l-0.006 0.014c0.062-0.122 0.099-0.266 0.099-0.419 0-0.387-0.234-0.719-0.568-0.862l-0.006-0.002c-1.681-0.715-2.837-2.353-2.837-4.26 0-0.002 0-0.005 0-0.007v0c0-0.002 0-0.004 0-0.007 0-1.908 1.157-3.545 2.807-4.249l0.030-0.011c0.027-0.012 0.054-0.025 0.080-0.039h1.457v2.813c0 0.518 0.42 0.937 0.937 0.937s0.937-0.42 0.937-0.937v-2.813h3.5v4.563c0 0.518 0.42 0.938 0.938 0.938s0.938-0.42 0.938-0.938v-1.687h0.913c0.518 0 0.938-0.42 0.938-0.938s-0.42-0.938-0.938-0.938h-0.913v-1c-0.002-1.035-0.84-1.874-1.875-1.875h-0.562v-2.507c0-0.518-0.42-0.938-0.938-0.938s-0.938 0.42-0.938 0.938v2.507h-4.211c-0.025-0.131-0.040-0.281-0.040-0.434 0-0.364 0.081-0.708 0.226-1.017l-0.006 0.015c0.301-0.655 0.872-1.141 1.565-1.324l0.017-0.004c0.409-0.107 0.705-0.473 0.705-0.908 0-0.016-0-0.032-0.001-0.047l0 0.002c-0.003-0.062-0.005-0.134-0.005-0.207 0-1.076 0.425-2.053 1.116-2.772l-0.001 0.001c0.73-0.77 1.759-1.249 2.901-1.249 0.005 0 0.011 0 0.016 0h-0.001c1.609 0.002 2.998 0.945 3.646 2.308l0.010 0.024v3.168c0.002 1.035 0.84 1.873 1.875 1.875h5c0.518 0 0.938-0.42 0.938-0.938s-0.42-0.938-0.938-0.938h-0.187v-1.311c0-0.518-0.42-0.938-0.938-0.938s-0.938 0.42-0.938 0.938v0 1.313h-2.937s-0.002-3.375-0.005-3.407c0.701-1.256 2.021-2.091 3.536-2.093h0c1.113 0 2.149 0.443 2.917 1.249 0.69 0.718 1.115 1.695 1.115 2.772 0 0.073-0.002 0.145-0.006 0.217l0-0.010c-0.001 0.013-0.001 0.029-0.001 0.045 0 0.435 0.296 0.801 0.698 0.906l0.007 0.001c0.703 0.18 1.28 0.664 1.583 1.327 0.139 0.293 0.22 0.637 0.22 1 0 0.389-0.093 0.757-0.258 1.082l0.006-0.014c-0.062 0.122-0.099 0.266-0.099 0.418 0 0.387 0.234 0.719 0.568 0.862l0.006 0.002c1.681 0.715 2.838 2.353 2.838 4.26 0 0.002 0 0.005 0 0.007v-0c0 0.002 0 0.004 0 0.006 0 1.839-1.076 3.427-2.632 4.169l-0.028 0.012z"></path>
</symbol>
<symbol id="ic-budget" viewBox="0 0 32 32">
<path d="M19.705 7.561c1.104-1.007 1.795-2.452 1.795-4.059 0-0.001 0-0.001 0-0.002v0-2.5c-0-0.552-0.448-1-1-1-0.113 0-0.222 0.019-0.323 0.053l0.007-0.002-1.832 0.611c-1.517 0.505-3.187 0.505-4.704 0l-1.832-0.611c-0.094-0.032-0.203-0.051-0.316-0.051-0.552 0-1 0.448-1 1v0 2.5c0 0.001 0 0.001 0 0.002 0 1.606 0.69 3.051 1.79 4.055l0.004 0.004c-5.089 1.583-8.795 6.337-8.795 11.939v8.375c0.003 2.277 1.848 4.122 4.125 4.125h16.75c2.277-0.002 4.123-1.848 4.125-4.125v-8.375c0-5.603-3.705-10.357-8.795-11.939zM12.5 3.5v-1.113l0.515 0.172c1.925 0.641 4.045 0.641 5.969 0l0.515-0.172v1.113c-0.002 1.932-1.568 3.498-3.5 3.5h-0c-1.932-0.002-3.498-1.568-3.5-3.5v-0zM26.5 27.875c-0.002 1.173-0.952 2.124-2.125 2.125h-16.749c-1.173-0.001-2.124-0.952-2.125-2.125v-8.375c0-5.79 4.71-10.5 10.5-10.5s10.5 4.71 10.5 10.5v8.375z"></path>
<path d="M16 18.5c-1.103 0-2-0.897-2-2s0.897-2 2-2 2 0.897 2 2c0 0.552 0.448 1 1 1s1-0.448 1-1v0c-0.002-1.853-1.262-3.411-2.972-3.867l-0.028-0.006v-0.627c0-0.552-0.448-1-1-1s-1 0.448-1 1v0 0.627c-1.738 0.462-2.998 2.020-3 3.873v0c0 2.205 1.795 4 4 4 1.103 0 2 0.897 2 2s-0.897 2-2 2-2-0.897-2-2c0-0.552-0.448-1-1-1s-1 0.448-1 1v0c0.002 1.853 1.262 3.411 2.972 3.867l0.028 0.006v0.627c0 0.552 0.448 1 1 1s1-0.448 1-1v0-0.627c1.738-0.462 2.998-2.020 3-3.873v-0c0-2.205-1.795-4-4-4z"></path>
</symbol>
<symbol id="ic-camera" viewBox="0 0 32 32">
<path d="M22.308 22.28v-6.487l3.74-1.549c3.006-1.245 4.439-4.704 3.193-7.711s-4.704-4.439-7.71-3.193l-20.415 8.457 1.69 2.523-2.806 1.162 2.237 5.401 3.885-1.609 1.69 2.523 8.867-3.673v4.157c-0.73 0.722-1.182 1.724-1.182 2.832 0 0 0 0.001 0 0.002v-0c0.002 2.206 1.79 3.994 3.996 3.996h0c1.107 0 2.11-0.452 2.834-1.182h9.672v-5.627h-9.672l-0.020-0.020zM3.252 18.433l-0.802-1.937 1.42-0.588 1.189 1.776-1.807 0.749zM8.515 19.477l-4.569-6.823 18.302-7.581c0.454-0.193 0.983-0.305 1.538-0.305 1.668 0 3.099 1.013 3.712 2.458l0.010 0.026c0.193 0.455 0.305 0.983 0.305 1.538 0 1.668-1.013 3.099-2.457 3.712l-0.026 0.010-16.815 6.965zM18.555 17.347l1.878-0.778v4.661c-0.282-0.071-0.606-0.112-0.939-0.112s-0.657 0.041-0.966 0.118l0.027-0.006v-3.883zM19.494 27.234c-1.17-0.002-2.119-0.95-2.121-2.12v-0c0.001-1.171 0.95-2.12 2.121-2.121h0c1.171 0.001 2.12 0.95 2.121 2.121v0c-0.001 1.171-0.95 2.12-2.121 2.121h-0zM23.377 24.175h6.748v1.878h-6.748c0.071-0.282 0.112-0.606 0.112-0.939s-0.041-0.657-0.118-0.966l0.006 0.027z"></path>
</symbol>
<symbol id="ic-Chat" viewBox="0 0 32 32">
<path d="M29.232 14.090c-0.211 1.394-0.671 2.647-1.335 3.764l0.026-0.048c0.051 0.285 0.077 0.573 0.077 0.861-0.006 1.054-0.314 2.034-0.843 2.86l0.013-0.021c-0.269 0.435-0.338 0.946-0.365 1.283-0.030 0.386-0.019 0.81 0.008 1.216 0.032 0.454 0.086 0.934 0.15 1.386-0.52-0.152-1.085-0.304-1.622-0.426-0.36-0.090-0.809-0.171-1.267-0.225l-0.055-0.005c-0.362-0.037-0.885-0.066-1.352 0.085-0.987 0.327-2.123 0.515-3.303 0.515-0.011 0-0.022-0-0.033-0h0.002c-0.021 0-0.045 0-0.070 0-1.355 0-2.652-0.251-3.846-0.71l0.073 0.025c-0.254 0.013-0.551 0.020-0.851 0.020-1.627 0-3.202-0.22-4.697-0.632l0.124 0.029c2.102 2.432 5.568 3.934 9.264 3.934 1.445 0 2.832-0.222 4.109-0.629h0.013c0.032 0 0.123-0.003 0.293 0.014 0.267 0.027 0.611 0.090 1.008 0.179 0.79 0.178 1.678 0.44 2.368 0.661 1.469 0.464 2.89-0.816 2.627-2.304-0.112-0.64-0.23-1.422-0.275-2.099-0.012-0.144-0.020-0.312-0.020-0.481 0-0.121 0.004-0.241 0.011-0.361l-0.001 0.016c0.005-0.063 0.012-0.12 0.022-0.176l-0.001 0.010c0.737-1.186 1.176-2.623 1.181-4.164v-0.001c0-1.696-0.528-3.248-1.435-4.576z"></path>
<path d="M7.462 7.598c-1.797 1.374-2.797 3.178-2.797 5.069 0 0.944 0.246 1.851 0.706 2.694 0.176 0.322 0.226 0.654 0.243 0.878 0.019 0.245 0.010 0.496-0.011 0.731-0.062 0.583-0.156 1.104-0.283 1.612l0.017-0.081c-0.144 0.616-0.326 1.272-0.512 1.888 0.704-0.256 1.475-0.52 2.205-0.731 0.589-0.173 1.184-0.322 1.715-0.406 0.456-0.072 1.12-0.144 1.69 0.054 1.28 0.443 2.714 0.693 4.23 0.693 2.864 0 5.406-0.888 7.205-2.264 1.797-1.374 2.795-3.178 2.795-5.069s-0.998-3.696-2.795-5.069c-1.798-1.376-4.341-2.264-7.205-2.264-2.862 0-5.405 0.888-7.203 2.264zM5.84 5.48c2.304-1.762 5.429-2.813 8.824-2.813 3.397 0 6.522 1.051 8.824 2.813 2.304 1.762 3.843 4.291 3.843 7.187s-1.538 5.424-3.843 7.187c-2.304 1.762-5.427 2.813-8.824 2.813-0.015 0-0.032 0-0.050 0-1.791 0-3.512-0.301-5.115-0.856l0.11 0.033c0 0.003-0.128-0.008-0.448 0.042-0.549 0.097-1.016 0.212-1.471 0.354l0.084-0.022c-1.072 0.314-2.28 0.757-3.198 1.115-1.59 0.619-3.213-0.91-2.677-2.538 0.285-0.864 0.621-1.954 0.838-2.896 0.11-0.474 0.181-0.872 0.208-1.168 0.010-0.102 0.011-0.176 0.011-0.227-0.601-1.111-0.956-2.432-0.96-3.836v-0.001c0-2.896 1.539-5.424 3.843-7.187z"></path>
</symbol>
<symbol id="ic-Clock" viewBox="0 0 32 32">
<path d="M17.334 8.666c0-0.737-0.597-1.334-1.334-1.334s-1.334 0.597-1.334 1.334v0 7.334c0 0.352 0.141 0.693 0.39 0.942l4 4c0.241 0.241 0.575 0.391 0.943 0.391 0.737 0 1.334-0.597 1.334-1.334 0-0.368-0.149-0.702-0.391-0.943v0l-3.61-3.608v-6.782z"></path>
<path d="M16 1.333c-0.046-0-0.099-0.001-0.153-0.001-8.1 0-14.667 6.567-14.667 14.667s6.567 14.667 14.667 14.667c0.054 0 0.108-0 0.161-0.001l-0.008 0c8.034-0.087 14.514-6.62 14.514-14.666s-6.48-14.58-14.506-14.666l-0.008-0zM4 16c0-6.627 5.373-12 12-12s12 5.373 12 12v0c0 6.627-5.373 12-12 12s-12-5.373-12-12v0z"></path>
</symbol>
<symbol id="ic-comfort" viewBox="0 0 32 32">
<path d="M25.369 1.393c-4.113-0.432-7.811 2.562-8.243 6.675l-0.751 7.149c-0.003 0.029-0.005 0.063-0.005 0.098 0 0.483 0.366 0.881 0.836 0.932l0.004 0 0.311 0.033-0.784 7.459c-0.36 3.427 2.135 6.509 5.563 6.869s6.509-2.135 6.869-5.563l0.784-7.459 0.311 0.033c0.029 0.003 0.063 0.005 0.098 0.005 0.483 0 0.881-0.366 0.932-0.836l0-0.004 0.751-7.149c0.432-4.113-2.562-7.811-6.675-8.243zM25.173 3.258c3.085 0.324 5.33 3.097 5.006 6.182l-0.261 2.487-11.189-1.176 0.261-2.487c0.325-3.085 3.098-5.33 6.183-5.006zM18.337 14.48l0.196-1.865 11.189 1.176-0.196 1.865-11.189-1.176zM27.303 24.849c-0.242 2.212-2.099 3.917-4.355 3.917-0.159 0-0.317-0.009-0.472-0.025l0.019 0.002c-2.211-0.242-3.917-2.1-3.917-4.355 0-0.159 0.009-0.317 0.025-0.472l-0.002 0.019 0.783-7.459 8.702 0.915-0.784 7.459z"></path>
<path d="M21.447 26.748l2.487 0.261c0.029 0.003 0.063 0.005 0.098 0.005 0.518 0 0.937-0.42 0.937-0.937 0-0.483-0.366-0.881-0.836-0.932l-0.004-0-2.486-0.261c-0.029-0.003-0.063-0.005-0.098-0.005-0.518 0-0.937 0.42-0.937 0.937 0 0.483 0.366 0.881 0.835 0.932l0.004 0zM6.631 1.393c-4.113 0.432-7.107 4.13-6.675 8.243l0.751 7.148c0.051 0.474 0.449 0.84 0.932 0.84 0.034 0 0.068-0.002 0.102-0.005l-0.004 0 0.311-0.033 0.784 7.46c0.36 3.427 3.442 5.922 6.869 5.562s5.923-3.442 5.563-6.869l-0.785-7.458 0.311-0.033c0.474-0.051 0.839-0.449 0.839-0.932 0-0.034-0.002-0.068-0.005-0.102l0 0.004-0.751-7.148c-0.432-4.113-4.13-7.107-8.243-6.675zM2.475 15.656l-0.196-1.865 11.188-1.176 0.196 1.865-11.188 1.176zM13.399 23.933c0.015 0.136 0.024 0.294 0.024 0.453 0 2.256-1.705 4.113-3.897 4.354l-0.020 0.002c-0.136 0.015-0.294 0.023-0.453 0.023-2.256 0-4.113-1.705-4.354-3.897l-0.002-0.020-0.784-7.46 8.703-0.914 0.783 7.459zM13.271 10.749l-11.188 1.177-0.261-2.487c-0.324-3.085 1.921-5.858 5.007-6.182 3.084-0.325 5.857 1.921 6.181 5.007l0.261 2.485z"></path>
<path d="M8.067 27.009l2.487-0.261c0.474-0.051 0.839-0.449 0.839-0.932 0-0.518-0.42-0.938-0.938-0.938-0.035 0-0.069 0.002-0.102 0.006l0.004-0-2.487 0.261c-0.474 0.051-0.839 0.449-0.839 0.932 0 0.518 0.42 0.938 0.938 0.938 0.035 0 0.069-0.002 0.102-0.006l-0.004 0z"></path>
</symbol>
<symbol id="ic-construction" viewBox="0 0 32 32">
<path d="M30.779 16.92c0.507 0 0.92-0.412 0.92-0.92v-6.868c0-0.508-0.412-0.92-0.92-0.92h-13.859v-5.948c0-0.508-0.412-0.92-0.92-0.92h-9.811c-0.508 0-0.92 0.412-0.92 0.92v5.948h-4.048c-0.507 0-0.92 0.412-0.92 0.92v6.868c0 0.508 0.412 0.92 0.92 0.92h4.048v5.029h-4.048c-0.507 0-0.92 0.412-0.92 0.92v6.868c0 0.508 0.412 0.92 0.92 0.92h29.557c0.507 0 0.92-0.412 0.92-0.92v-6.868c0-0.508-0.412-0.92-0.92-0.92h-4.048v-5.029h4.048zM29.858 15.080h-8.033v-5.029h8.033v5.029zM19.986 15.080h-7.972v-5.029h7.972v5.029zM7.108 3.184h7.972v5.029h-7.972v-5.029zM2.142 15.080v-5.029h8.033v5.029h-8.033zM7.108 16.92h7.972v5.029h-7.972v-5.029zM2.142 23.787h8.033v5.029h-8.033v-5.029zM12.014 23.787h7.972v5.029h-7.972v-5.029zM29.858 23.787v5.029h-8.033v-5.029h8.033zM24.892 21.948h-7.972v-5.029h7.972v5.029z"></path>
</symbol>
<symbol id="ic-contract" viewBox="0 0 32 32">
<path d="M11.080 6.165h-5.595c-0.518 0-0.938 0.42-0.938 0.938s0.42 0.938 0.938 0.938h5.595c0.518 0 0.938-0.42 0.938-0.938s-0.42-0.938-0.938-0.938v0zM11.080 9.915h-5.595c-0.518 0-0.938 0.42-0.938 0.938s0.42 0.938 0.938 0.938h5.595c0.518 0 0.938-0.42 0.938-0.938s-0.42-0.938-0.938-0.938v0zM11.080 13.665h-5.595c-0.518 0-0.938 0.42-0.938 0.938s0.42 0.938 0.938 0.938h5.595c0.518 0 0.938-0.42 0.938-0.938s-0.42-0.938-0.938-0.938v0zM11.080 17.415h-5.595c-0.518 0-0.938 0.42-0.938 0.938s0.42 0.938 0.938 0.938h5.595c0.518 0 0.938-0.42 0.938-0.938s-0.42-0.938-0.938-0.938v0zM11.080 21.229h-5.595c-0.518 0-0.937 0.42-0.937 0.937s0.42 0.937 0.937 0.937h5.595c0.518 0 0.937-0.42 0.937-0.937s-0.42-0.937-0.937-0.937v0zM14.229 8.040h5.595c0.518 0 0.937-0.42 0.937-0.937s-0.42-0.937-0.937-0.937h-5.595c-0.518 0-0.938 0.42-0.938 0.938s0.42 0.938 0.938 0.938v0zM14.229 11.791h5.595c0.518 0 0.938-0.42 0.938-0.938s-0.42-0.938-0.938-0.938h-5.595c-0.518 0-0.938 0.42-0.938 0.938s0.42 0.938 0.938 0.938v0zM17.861 14.603c0-0.517-0.42-0.937-0.937-0.937h-2.695c-0.518 0-0.938 0.42-0.938 0.938s0.42 0.938 0.938 0.938h2.695c0.518 0 0.937-0.42 0.937-0.938zM26.742 21.624c-0.159-0.128-0.364-0.206-0.586-0.206-0.295 0-0.558 0.136-0.73 0.349l-0.001 0.002-2.415 3.011-1.495-1.083c-0.152-0.111-0.343-0.178-0.55-0.178-0.518 0-0.938 0.42-0.938 0.938 0 0.311 0.152 0.587 0.385 0.758l0.003 0.002 2.218 1.607c0.152 0.112 0.343 0.179 0.55 0.179 0.295 0 0.558-0.137 0.73-0.351l0.001-0.002 2.973-3.706c0.128-0.159 0.206-0.364 0.206-0.586 0-0.295-0.136-0.558-0.35-0.73l-0.002-0.001z"></path>
<path d="M29.111 18.747c-1.168-1.194-2.716-2.010-4.449-2.252l-0.041-0.005v-12.715c-0.003-2.084-1.692-3.773-3.776-3.775h-16.382c-2.084 0.002-3.773 1.691-3.776 3.775v21.718c0.002 2.084 1.692 3.774 3.776 3.776h13.176c1.425 1.675 3.534 2.731 5.89 2.731 0.011 0 0.022-0 0.032-0h-0.002c4.293 0 7.786-3.495 7.786-7.791 0-0.006 0-0.013 0-0.019 0-2.122-0.853-4.045-2.235-5.444l0.001 0.001zM2.563 25.493v-21.717c0-1.047 0.853-1.9 1.901-1.9h16.382c1.048 0 1.901 0.853 1.901 1.9v12.685c-3.912 0.409-6.972 3.727-6.972 7.749 0 1.115 0.233 2.192 0.679 3.185h-11.989c-1.049-0.001-1.9-0.851-1.901-1.901v-0zM23.56 30.125c-0.006 0-0.013 0-0.020 0-1.918 0-3.621-0.92-4.691-2.344l-0.011-0.015c-0.742-0.972-1.189-2.204-1.189-3.541 0-0.006 0-0.012 0-0.018v0.001c0-3.262 2.652-5.916 5.911-5.916l0.107 0.001c1.611 0.026 3.061 0.697 4.106 1.766l0.001 0.001c1.049 1.062 1.697 2.522 1.697 4.134 0 0.005 0 0.010-0 0.016v-0.001c0 3.262-2.651 5.916-5.911 5.916z"></path>
</symbol>
<symbol id="ic-hand" viewBox="0 0 32 32">
<path d="M4.667 29.333h-3.667c-0.552 0-1-0.448-1-1v0-11.333c0-0.552 0.448-1 1-1v0c4.675 0 6.851 1.623 6.94 1.692 0.24 0.185 0.393 0.472 0.393 0.795 0 0.093-0.013 0.183-0.036 0.268l0.002-0.007-2.667 9.848c-0.119 0.428-0.506 0.737-0.965 0.737-0 0-0 0-0 0h0zM2 27.333h1.901l2.264-8.361c-0.697-0.329-2.060-0.82-4.165-0.943v9.304z"></path>
<path d="M17.333 32c-3.012 0-8.564-2.305-12.692-4.241-0.343-0.164-0.576-0.508-0.576-0.906 0-0.553 0.448-1.001 1.001-1.001 0.154 0 0.3 0.035 0.431 0.097l-0.006-0.003c5.493 2.577 9.811 4.053 11.843 4.053 2.704 0 8.843-2.921 12.060-4.607-0.371-0.212-0.923-0.393-1.727-0.393-1.173 0-2.62 0.48-4.019 0.944-0.455 0.151-0.908 0.301-1.357 0.439-0.989 0.305-2.157 0.617-3.292 0.617-2.809 0-6.519-1.336-6.675-1.393-0.388-0.143-0.659-0.51-0.659-0.94 0-0.123 0.022-0.24 0.063-0.349l-0.002 0.007c0.144-0.387 0.511-0.658 0.941-0.658 0.122 0 0.239 0.022 0.347 0.062l-0.007-0.002c0.035 0.013 3.536 1.273 5.992 1.273 0.875 0 1.905-0.283 2.705-0.529 0.435-0.133 0.873-0.279 1.312-0.424 1.549-0.515 3.151-1.047 4.648-1.047 3.305 0 4.224 2.201 4.261 2.296 0.045 0.11 0.071 0.237 0.071 0.371 0 0.375-0.206 0.702-0.512 0.873l-0.005 0.003c-0.4 0.223-9.937 5.457-14.147 5.457z"></path>
<path d="M22 26.453c-0.552 0-1-0.448-1-1v0-0.6c-0.003-0.802-0.568-1.47-1.322-1.631l-0.011-0.002-12.841-2.627c-0.459-0.097-0.799-0.498-0.799-0.98 0-0.552 0.448-1 1-1 0.071 0 0.14 0.007 0.207 0.021l-0.007-0.001 12.841 2.627c1.683 0.358 2.927 1.83 2.932 3.593v0.601c-0 0.552-0.448 0.999-1 0.999v0zM24 18.667c-0.133 0-0.265-0.027-0.391-0.081-0.311-0.132-7.609-3.309-7.609-9.848v-5.357c0-0.437 0.281-0.809 0.672-0.945l0.007-0.002 7-2.381c0.208-0.072 0.435-0.072 0.643 0l7 2.381c0.407 0.137 0.679 0.517 0.679 0.947v5.357c0 6.539-7.299 9.717-7.609 9.849-0.115 0.050-0.25 0.078-0.391 0.079h-0zM18 4.096v4.641c0 4.464 4.607 7.121 5.999 7.821 1.389-0.703 6.001-3.374 6.001-7.821v-4.641l-6-2.041-6 2.041z"></path>
<path d="M23.667 12.667c-0.265 0-0.52-0.105-0.707-0.293l-2.667-2.667c-0.181-0.181-0.293-0.431-0.293-0.707 0-0.552 0.448-1 1-1 0.276 0 0.526 0.112 0.707 0.293l1.852 1.852 3.307-4.411c0.184-0.244 0.474-0.399 0.799-0.399 0.552 0 0.999 0.447 0.999 0.999 0 0.226-0.075 0.435-0.202 0.603l0.002-0.003-4 5.333c-0.173 0.232-0.439 0.377-0.73 0.397-0.023 0.003-0.045 0.003-0.069 0.003z"></path>
</symbol>
<symbol id="ic-helmet" viewBox="0 0 32 32">
<path d="M30.125 22.724v-2.974c0-3.087-0.996-6.021-2.879-8.485-1.667-2.158-3.893-3.809-6.463-4.746l-0.1-0.032c-0.077-1.492-1.305-2.673-2.808-2.675h-3.75c-1.504 0.002-2.732 1.183-2.809 2.669l-0 0.007c-2.669 0.968-4.896 2.619-6.538 4.744l-0.025 0.033c-1.883 2.464-2.878 5.398-2.878 8.485v2.973c-1.101 0.399-1.874 1.435-1.875 2.652v0c0.002 1.553 1.26 2.811 2.813 2.813h26.374c1.554-0.001 2.813-1.261 2.813-2.815v-0c-0.002-1.217-0.775-2.252-1.856-2.644l-0.020-0.006zM3.749 19.75c0-3.381 1.444-6.545 3.813-8.803v3.178c0 0.518 0.42 0.937 0.937 0.937s0.937-0.42 0.937-0.937v0-4.649c0.534-0.347 1.151-0.676 1.796-0.95l0.080-0.030v7.504c0 0.518 0.42 0.937 0.937 0.937s0.937-0.42 0.937-0.937v0-9.375c0-0.517 0.421-0.938 0.938-0.938h3.75c0.517 0 0.937 0.421 0.937 0.937v9.375c0 0.518 0.42 0.937 0.937 0.937s0.937-0.42 0.937-0.937v0-7.504c0.658 0.274 1.285 0.603 1.875 0.98v4.649c0 0.518 0.42 0.937 0.937 0.937s0.937-0.42 0.937-0.937v0-3.178c2.369 2.258 3.813 5.423 3.813 8.803v2.813h-24.499v-2.813zM29.187 26.313h-26.373c-0.499-0.024-0.895-0.434-0.895-0.938s0.396-0.914 0.893-0.938l0.002-0h26.373c0.499 0.024 0.895 0.434 0.895 0.938s-0.396 0.914-0.893 0.938l-0.002 0z"></path>
</symbol>
<symbol id="ic-house" viewBox="0 0 32 32">
<path d="M19.281 14.063c-1.305 0-2.438 0.594-3.281 1.72-0.844-1.126-1.977-1.72-3.281-1.72-2.437 0-4.219 2.003-4.219 4.46 0 3.177 3.079 5.173 6.89 8.439 0.163 0.141 0.376 0.227 0.61 0.227s0.447-0.086 0.611-0.227l-0.001 0.001c3.815-3.27 6.89-5.263 6.89-8.439 0-2.455-1.78-4.46-4.219-4.46zM16 25.019c-3.433-2.901-5.625-4.465-5.625-6.497 0-1.473 1.008-2.585 2.344-2.585 1.737 0 2.353 2.040 2.38 2.132 0.116 0.395 0.476 0.679 0.901 0.679 0.427 0 0.788-0.285 0.901-0.676l0.002-0.007c0.006-0.021 0.616-2.128 2.379-2.128 1.336 0 2.343 1.111 2.343 2.585 0 2.033-2.194 3.599-5.625 6.497z"></path>
<path d="M31.062 30.125h-2.812v-14.562l0.016 0.011c0.152 0.11 0.341 0.176 0.546 0.176 0.306 0 0.577-0.146 0.748-0.373l0.002-0.002 2.251-2.999c0.116-0.155 0.186-0.35 0.186-0.562 0-0.312-0.152-0.588-0.385-0.759l-0.003-0.002-15.058-10.872c-0.153-0.113-0.345-0.181-0.553-0.181-0.207 0-0.398 0.067-0.553 0.181l0.003-0.002-6.074 4.386v-1.752c0-0.518-0.42-0.938-0.938-0.938h-3.75c-0.517 0-0.937 0.42-0.937 0.938v5.813l-3.361 2.427c-0.236 0.172-0.388 0.448-0.388 0.76 0 0.212 0.071 0.408 0.19 0.565l-0.002-0.002 2.25 2.999c0.173 0.229 0.444 0.375 0.75 0.375 0.205 0 0.395-0.066 0.549-0.177l-0.003 0.002 0.016-0.011v14.562h-2.813c-0.518 0-0.938 0.42-0.938 0.938s0.42 0.938 0.938 0.938h30.125c0.518 0 0.938-0.42 0.938-0.938s-0.42-0.938-0.938-0.938v0zM5.625 3.751h1.875v2.169l-1.875 1.353v-3.522zM3.388 13.516l-1.127-1.501 13.739-9.92 13.74 9.92-1.127 1.501-12.065-8.651c-0.152-0.111-0.342-0.177-0.548-0.177s-0.396 0.066-0.551 0.179l0.003-0.002c-0.213 0.153-11.796 8.459-12.064 8.651zM5.625 14.219c6.886-4.939 9.433-6.763 10.375-7.44 1.273 0.913 4.747 3.405 10.375 7.44v15.907h-20.751v-15.907z"></path>
</symbol>
<symbol id="ic-like" viewBox="0 0 35 32">
<path d="M33.614 17.375c0.535-0.593 0.862-1.382 0.862-2.248 0-0.001 0-0.002 0-0.003v0c-0.003-1.863-1.512-3.372-3.375-3.374h-6.551c0.648-1.969 0.926-4.582 0.926-5.701v-1.125c-0.003-2.484-2.016-4.497-4.5-4.5h-1.126c-0.516 0-0.966 0.351-1.091 0.852l-0.612 2.452c-0.859 3.434-3.586 7.222-6.407 7.91-0.508-1.262-1.721-2.137-3.139-2.139h-6.751c-0.621 0-1.125 0.504-1.125 1.125v20.25c0 0.621 0.504 1.125 1.125 1.125h6.75c1.336-0.001 2.49-0.778 3.038-1.904l0.009-0.020 3.866 1.288c1.264 0.422 2.581 0.636 3.914 0.636h9.424c1.864-0.003 3.374-1.515 3.374-3.379 0-0.446-0.086-0.872-0.244-1.262l0.008 0.023c1.444-0.405 2.485-1.709 2.487-3.256v-0c0-0.001 0-0.002 0-0.003 0-0.866-0.327-1.655-0.864-2.251l0.003 0.003c0.535-0.593 0.862-1.382 0.862-2.248 0-0.001 0-0.002 0-0.003v0c0-0.001 0-0.001 0-0.002 0-0.866-0.327-1.655-0.864-2.251l0.003 0.003zM9.726 28.624c0 0.621-0.506 1.126-1.126 1.126h-5.625v-18h5.625c0.62 0 1.125 0.504 1.125 1.125v15.75zM28.85 18.499h2.25c0.62 0 1.125 0.504 1.125 1.125s-0.504 1.126-1.125 1.126h-2.25c-0.603 0.023-1.083 0.518-1.083 1.125s0.48 1.101 1.081 1.125l0.002 0h2.25c0.62 0 1.125 0.504 1.125 1.125s-0.504 1.126-1.125 1.126h-2.25c-0.603 0.023-1.083 0.518-1.083 1.125s0.48 1.101 1.081 1.125l0.002 0c0.621 0 1.126 0.504 1.126 1.125s-0.505 1.126-1.126 1.126h-9.424c-1.090 0-2.168-0.175-3.202-0.52l-4.248-1.416v-13.92c1.765-0.336 3.492-1.453 5.051-3.282 1.522-1.786 2.757-4.154 3.302-6.336l0.4-1.6h0.246c1.242 0.002 2.248 1.008 2.25 2.249v1.125c0 1.51-0.472 4.408-1.077 5.7h-2.298c-0.609 0.017-1.096 0.514-1.096 1.125s0.487 1.108 1.094 1.125l0.002 0h11.25c0.62 0 1.125 0.504 1.125 1.125s-0.504 1.126-1.125 1.126h-2.25c-0.603 0.023-1.083 0.518-1.083 1.125s0.48 1.101 1.081 1.125l0.002 0z"></path>
</symbol>
<symbol id="ic-painting" viewBox="0 0 32 32">
<path d="M26.18 3.061c0-1.522-1.238-2.759-2.759-2.759h-18.397c-1.522 0-2.759 1.238-2.759 2.759v5.518c0 1.522 1.238 2.76 2.759 2.76h18.397c1.521 0 2.759-1.238 2.759-2.759v-0.92h0.92c0.507 0 0.92 0.413 0.92 0.92v3.679c0 0.507-0.412 0.92-0.92 0.92h-11.038c-1.521 0-2.759 1.238-2.759 2.759v2.759h-0.92c-0.508 0-0.92 0.412-0.92 0.92v3.629l-0.92 3.739c-0.598 2.392 1.209 4.712 3.679 4.712s4.277-2.323 3.68-4.709l-0.921-3.742v-3.629c0-0.508-0.412-0.92-0.92-0.92h-0.92v-2.759c0-0.507 0.413-0.92 0.92-0.92h11.037c1.521 0 2.76-1.238 2.76-2.759v-3.68c0-1.521-1.238-2.759-2.759-2.759h-0.92v-2.759zM15.141 20.538v1.901h-1.84v-1.901h1.84zM14.221 29.858c-0 0-0 0-0.001 0-1.078 0-1.953-0.874-1.953-1.953 0-0.169 0.022-0.334 0.062-0.491l-0.003 0.014 0.775-3.151h2.237l0.776 3.154c0.037 0.142 0.059 0.306 0.059 0.475 0 1.078-0.874 1.953-1.953 1.953v0zM5.023 2.142h18.397c0.507 0 0.92 0.412 0.92 0.92v0.92h-2.759c-0.894 0-2.038 0.335-3.361 0.722-1.788 0.524-3.814 1.117-5.837 1.117-1.973 0-3.363-0.576-4.59-1.084-0.938-0.388-1.823-0.755-2.769-0.755h-0.92v-0.92c0-0.507 0.412-0.92 0.92-0.92zM24.339 8.58c0 0.507-0.412 0.92-0.92 0.92h-18.396c-0.507 0-0.92-0.412-0.92-0.92v-2.759h0.92c0.58 0 1.235 0.272 2.065 0.615 1.316 0.545 2.955 1.224 5.294 1.224 2.287 0 4.542-0.661 6.355-1.191 1.138-0.334 2.213-0.648 2.844-0.648h2.759v2.759z"></path>
</symbol>
<symbol id="ic-pantone" viewBox="0 0 32 32">
<path d="M6.802 22.439c-1.521 0-2.759 1.238-2.759 2.759s1.238 2.759 2.759 2.759c1.521 0 2.759-1.238 2.759-2.759s-1.238-2.759-2.759-2.759zM6.802 26.118c-0.507 0-0.92-0.413-0.92-0.92s0.413-0.92 0.92-0.92 0.92 0.412 0.92 0.92c0 0.507-0.412 0.92-0.92 0.92z"></path>
<path d="M30.038 18.989c0.338-0.453 0.542-1.024 0.542-1.643 0-0.508-0.137-0.984-0.376-1.392l0.007 0.013-3.677-6.43c-0.636-1.102-1.978-1.605-3.175-1.285 0.042-0.18 0.066-0.386 0.066-0.599 0-1.017-0.549-1.905-1.366-2.385l-0.013-0.007-6.372-3.679c-0.396-0.232-0.871-0.369-1.379-0.369-0.539 0-1.042 0.154-1.467 0.422l0.011-0.007c-0.493-0.8-1.363-1.325-2.357-1.326h-7.42c-1.522 0-2.759 1.238-2.759 2.759v25.878c0 1.521 1.238 2.759 2.759 2.759h25.878c1.521 0 2.759-1.238 2.759-2.759v-7.42c-0.002-1.126-0.676-2.094-1.643-2.523l-0.018-0.007zM11.401 28.939c0 0.507-0.413 0.92-0.92 0.92h-7.42c-0.507 0-0.92-0.412-0.92-0.92v-8.34h9.259v8.34zM11.401 18.759h-9.259v-7.42h9.259v7.42zM11.401 9.5h-9.259v-6.439c0-0.507 0.412-0.92 0.92-0.92h7.42c0.507 0 0.92 0.412 0.92 0.92v6.439zM13.241 3.955l0.255-0.443c0.162-0.277 0.459-0.46 0.797-0.46 0.169 0 0.328 0.046 0.464 0.125l-0.004-0.002 6.372 3.679c0.44 0.254 0.59 0.817 0.336 1.258l-1.063 1.848c-0.025 0.035-0.048 0.075-0.069 0.117l-0.002 0.005-7.087 12.32v-18.447zM13.241 26.091l8.598-14.946 1.778-1.026c0.45-0.26 1.069-0.103 1.321 0.335l3.677 6.43c0.255 0.441 0.106 1.005-0.339 1.262l-15.035 8.706v-0.76zM29.858 28.939c0 0.507-0.412 0.92-0.92 0.92h-15.856c0.098-0.277 0.153-0.574 0.157-0.881l14.471-8.378h1.229c0.507 0 0.92 0.413 0.92 0.92v7.42z"></path>
</symbol>
<symbol id="ic-plan" viewBox="0 0 32 32">
<path d="M28.019 2.203c-1.354 0.001-2.537 0.733-3.176 1.822l-0.009 0.017h-23.612c-0.507 0-0.92 0.412-0.92 0.921v23.915c0 0.507 0.412 0.92 0.92 0.92h26.797c2.031-0.002 3.677-1.648 3.679-3.679v-20.237c-0.002-2.031-1.648-3.677-3.679-3.679h-0zM28.019 27.958h-25.878v-22.076h22.199v20.236c0 0.508 0.412 0.92 0.92 0.92s0.92-0.412 0.92-0.92v0c0.001-1.016 0.824-1.839 1.84-1.84h0c1.016 0.001 1.839 0.824 1.84 1.84v0c-0.001 1.016-0.824 1.839-1.84 1.84h-0zM29.858 22.933c-0.526-0.31-1.159-0.494-1.835-0.494-0.002 0-0.003 0-0.005 0h0c-0.67 0-1.298 0.18-1.84 0.494v-17.051c0.001-1.016 0.824-1.839 1.84-1.84h0c1.016 0.001 1.839 0.824 1.84 1.84v17.051z"></path>
<path d="M21.518 7.722h-16.555c-0.508 0-0.92 0.411-0.92 0.92v16.556c0 0.508 0.412 0.92 0.92 0.92h9.198c0 0 0 0 0.001 0 0.508 0 0.92-0.412 0.92-0.92 0-0 0-0 0-0.001v0-1.84c0.001-1.194 0.759-2.21 1.82-2.596l0.019-0.006v4.441c0 0.508 0.412 0.92 0.92 0.92h3.679c0.508 0 0.92-0.412 0.92-0.92v-16.557c0-0.507-0.412-0.92-0.92-0.92zM20.599 24.278h-1.84v-4.598c0-0.508-0.412-0.92-0.92-0.92-2.536 0-4.599 2.063-4.599 4.599v0.92h-7.359v-5.518h3.679v2.759c0.013 0.498 0.42 0.897 0.92 0.897s0.907-0.399 0.92-0.895l0-0.001v-3.679c0-0.508-0.412-0.92-0.92-0.92h-4.599v-7.358h5.519v3.679h-2.759c-0.508 0-0.92 0.412-0.92 0.92s0.412 0.92 0.92 0.92h7.359c0.508 0 0.92-0.412 0.92-0.92s-0.412-0.92-0.92-0.92h-2.759v-3.679h7.358v14.716z"></path>
</symbol>
<symbol id="ic-success" viewBox="0 0 32 32">
<path d="M28.551 10.041h-4.083v-3.145h6.595c0 0 0 0 0 0 0.518 0 0.937-0.42 0.937-0.937 0-0.273-0.117-0.519-0.304-0.691l-0.001-0.001-1.819-1.82 1.848-1.847c0.17-0.17 0.275-0.404 0.275-0.663 0-0.518-0.42-0.937-0.937-0.937-0 0-0.001 0-0.001 0h-7.531c-0.517 0-0.937 0.42-0.937 0.937v9.104h-1.071c-1.903 0.002-3.446 1.545-3.448 3.448v1.954c-0.456-0.24-0.996-0.381-1.57-0.381-0.001 0-0.002 0-0.003 0h-1.004c-1.903 0.002-3.446 1.544-3.448 3.448v1.954c-0.456-0.239-0.996-0.38-1.569-0.38-0.002 0-0.003 0-0.005 0h-1.002c-1.903 0.002-3.445 1.544-3.448 3.446v1.955c-0.456-0.24-0.997-0.381-1.57-0.381-0.001 0-0.002 0-0.003 0h-1.003c-1.904 0.002-3.447 1.544-3.449 3.448v2.51c0 0.518 0.42 0.937 0.937 0.937h30.124c0.518 0 0.937-0.42 0.937-0.937v-17.572c-0.002-1.903-1.544-3.445-3.447-3.448h-0zM24.468 1.875h4.33l-0.91 0.91c-0.17 0.17-0.275 0.404-0.275 0.663s0.105 0.494 0.275 0.663l0.91 0.909h-4.33v-3.146zM1.875 28.551c0-0.867 0.706-1.573 1.573-1.573h1.004c0.867 0 1.573 0.706 1.573 1.573v1.573h-4.15v-1.573zM7.9 28.551v-5.020c0.001-0.868 0.704-1.572 1.573-1.573h1.004c0.867 0 1.573 0.706 1.573 1.573v6.593h-4.15v-1.573zM13.924 23.531v-5.021c0-0.867 0.707-1.573 1.573-1.573h1.004c0.867 0 1.573 0.706 1.573 1.573v11.613h-4.151v-6.593zM30.124 30.124h-10.175v-16.635c0.001-0.868 0.704-1.572 1.573-1.573h7.029c0.867 0 1.573 0.706 1.573 1.573v16.635z"></path>
</symbol>
<symbol id="iPhone" viewBox="0 0 32 32">
<path d="M11.333 3.896c-1.105 0-2 0.895-2 2v0 20.208c0 1.105 0.895 2 2 2v0h9.334c1.105 0 2-0.895 2-2v0-20.208c0-1.105-0.895-2-2-2v0h-0.111l-0.325 0.779c-0.206 0.486-0.679 0.82-1.23 0.82h-6c-0.538 0-1.024-0.323-1.231-0.82l-0.325-0.78h-0.111zM6.666 5.896c0-0 0-0.001 0-0.001 0-2.577 2.089-4.666 4.666-4.666h9.334c2.577 0 4.666 2.089 4.666 4.666v0 20.208c0 0 0 0.001 0 0.001 0 2.577-2.089 4.666-4.666 4.666h-9.334c-2.577 0-4.666-2.089-4.666-4.666v0-20.208z"></path>
</symbol>
<symbol id="large" viewBox="0 0 32 32">
<path d="M20.6 15.654c0.12 0.070 0.2 0.199 0.2 0.346s-0.080 0.276-0.198 0.345l-0.002 0.001-6.6 3.81c-0.057 0.034-0.126 0.054-0.2 0.054-0.221 0-0.4-0.179-0.4-0.4v0-7.621c0-0.221 0.179-0.4 0.4-0.4 0.074 0 0.143 0.020 0.202 0.055l-0.002-0.001 6.6 3.81z"></path>
</symbol>
<symbol id="Left" viewBox="0 0 32 32">
<path d="M12.276 22.943c-0.241 0.241-0.575 0.39-0.943 0.39s-0.701-0.149-0.943-0.39l-6-6c-0.241-0.241-0.39-0.575-0.39-0.943s0.149-0.701 0.39-0.943l6-6c0.24-0.232 0.566-0.374 0.926-0.374 0.736 0 1.333 0.597 1.333 1.333 0 0.36-0.143 0.687-0.375 0.927l-3.724 3.724h18.115c0.736 0 1.333 0.597 1.333 1.333s-0.597 1.333-1.333 1.333v0h-18.115l3.724 3.724c0.241 0.241 0.39 0.575 0.39 0.943s-0.149 0.701-0.39 0.943v0z"></path>
</symbol>
<symbol id="Linked-In-tm" viewBox="0 0 32 32">
<path d="M29.325 29.333l0.008-0.002v-9.781c0-4.784-1.030-8.469-6.624-8.469-2.688 0-4.493 1.475-5.23 2.874h-0.077v-2.427h-5.306v17.803h5.522v-8.816c0-2.32 0.44-4.565 3.315-4.565 2.832 0 2.875 2.648 2.875 4.714v8.669h5.515zM3.106 11.53h5.53v17.803h-5.531v-17.803zM5.867 2.666c-1.768 0.001-3.201 1.434-3.202 3.202v0c0 1.768 1.435 3.232 3.202 3.232 1.768 0 3.203-1.464 3.203-3.232-0.002-1.768-1.435-3.201-3.203-3.202h-0z"></path>
</symbol>
<symbol id="Linked-In" viewBox="0 0 32 32">
<path d="M29.327 29.333h0.007v-9.781c0-4.784-1.031-8.469-6.624-8.469-2.688 0-4.493 1.475-5.229 2.873h-0.077v-2.427h-5.304v17.803h5.523v-8.815c0-2.321 0.44-4.567 3.315-4.567 2.832 0 2.875 2.649 2.875 4.715v8.668h5.516zM3.107 11.531h5.529v17.803h-5.529v-17.803zM5.869 2.667c-1.769 0-3.203 1.434-3.203 3.203v0c0 1.767 1.435 3.232 3.203 3.232 1.767 0 3.201-1.464 3.201-3.232s-1.433-3.201-3.201-3.203h-0z"></path>
</symbol>
<symbol id="load-icon" viewBox="0 0 32 32">
<path d="M2.8 2.667c0.736 0 1.333 0.597 1.333 1.333v0 5.915c2.259-4.337 6.721-7.248 11.863-7.248 0.001 0 0.003 0 0.004 0h-0c5.807 0 10.744 3.712 12.573 8.889 0.056 0.142 0.089 0.307 0.089 0.48 0 0.736-0.597 1.333-1.333 1.333-0.59 0-1.091-0.384-1.267-0.916l-0.003-0.009c-1.511-4.178-5.443-7.11-10.060-7.11-3.928 0-7.36 2.122-9.213 5.282l-0.027 0.050h4.040c0.736 0 1.333 0.597 1.333 1.333s-0.597 1.333-1.333 1.333v0h-8c-0.736 0-1.333-0.597-1.333-1.333v0-8c0-0.736 0.597-1.333 1.333-1.333v0zM4.236 18.743c0.132-0.048 0.285-0.076 0.444-0.076 0.577 0 1.069 0.367 1.254 0.88l0.003 0.009c1.511 4.178 5.443 7.11 10.060 7.11 3.928 0 7.36-2.122 9.213-5.282l0.027-0.050h-4.040c-0.736 0-1.333-0.597-1.333-1.333s0.597-1.333 1.333-1.333v0h8c0.736 0 1.333 0.597 1.333 1.333v0 8c0 0.736-0.597 1.333-1.333 1.333s-1.333-0.597-1.333-1.333v0-5.915c-2.259 4.337-6.721 7.248-11.863 7.248-0.001 0-0.003 0-0.004 0h0c-5.808 0-10.745-3.712-12.573-8.889-0.048-0.132-0.076-0.285-0.076-0.444 0-0.577 0.366-1.068 0.879-1.254l0.009-0.003z"></path>
</symbol>
<symbol id="logo" viewBox="0 0 189 32">
<path fill="#1e212c" style="fill: var(--color1, #1e212c)" d="M0 16.145c0-8.873 4.8-14.255 12.655-14.255 5.964 0 10.764 3.636 11.636 9.018 0.145 0.582-0.291 1.018-0.873 1.018h-3.782c-0.436 0-0.727-0.291-0.873-0.727-0.727-2.764-3.055-4.509-6.109-4.509-4.218 0-6.836 3.636-6.836 9.455s2.618 9.455 6.982 9.455c3.055 0 5.236-1.6 6.109-4.218 0.145-0.436 0.436-0.727 0.873-0.727h3.782c0.582 0 1.018 0.582 0.873 1.018-0.873 5.236-5.527 8.727-11.636 8.727-8 0-12.8-5.527-12.8-14.255zM35.345 29.673h-4.218c-0.436 0-0.727-0.291-0.727-0.727v-25.164c0-0.582 0.582-1.164 1.164-1.164h10.182c5.964 0 9.6 3.345 9.6 8.582 0 3.055-1.455 5.818-3.927 7.273-0.582 0.291-0.727 1.018-0.436 1.455l4.509 8.582c0.291 0.436-0.145 1.018-0.582 1.018h-4.8c-0.291 0-0.582-0.145-0.727-0.436l-4.218-8.727c-0.145-0.436-0.582-0.582-1.018-0.582h-3.345c-0.436 0-0.727 0.291-0.727 0.727v8.582c0.145 0.291-0.291 0.582-0.727 0.582zM36.218 14.836c0 0.436 0.291 0.727 0.727 0.727h4.364c2.909 0 4.509-1.6 4.509-4.218s-1.745-4.218-4.509-4.218h-4.218c-0.436 0-0.727 0.291-0.727 0.727v6.982h-0.145zM74.909 29.673h-16c-0.582 0-1.018-0.436-1.018-1.018v-25.018c0-0.582 0.436-1.018 1.018-1.018h16c0.582 0 1.018 0.436 1.018 1.018v2.764c0 0.582-0.436 1.018-1.018 1.018h-10.618c-0.436 0-0.727 0.291-0.727 0.727v4.945c0 0.436 0.291 0.727 0.727 0.727h9.891c0.582 0 1.018 0.436 1.018 1.018v2.473c0 0.582-0.436 1.018-1.018 1.018h-9.891c-0.436 0-0.727 0.291-0.727 0.727v5.527c0 0.436 0.291 0.727 0.727 0.727h10.618c0.582 0 1.018 0.436 1.018 1.018v2.764c0 0.145-0.436 0.582-1.018 0.582zM97.455 23.127h-8.291c-0.436 0-0.727 0.291-0.873 0.582l-1.6 5.382c-0.145 0.436-0.436 0.582-0.873 0.582h-3.782c-0.582 0-1.018-0.582-0.873-1.164l8.727-25.309c0.145-0.291 0.436-0.582 0.873-0.582h5.382c0.436 0 0.727 0.291 0.873 0.582l8.727 25.309c0.145 0.582-0.291 1.164-0.873 1.164h-4.218c-0.436 0-0.727-0.291-0.873-0.582l-1.6-5.382c0-0.291-0.436-0.582-0.727-0.582zM90.327 18.909h5.964c0.291 0 0.436-0.291 0.436-0.582l-3.2-10.182h-0.291l-3.2 10.182c-0.145 0.291 0 0.582 0.291 0.582zM114.909 28.655v-20.655c0-0.436-0.291-0.727-0.727-0.727h-6.4c-0.582 0-1.164-0.436-1.164-1.164v-2.473c0-0.582 0.436-1.164 1.164-1.164h19.782c0.582 0 1.164 0.436 1.164 1.164v2.473c0 0.582-0.436 1.164-1.164 1.164h-6.4c-0.436 0-0.727 0.291-0.727 0.727v20.8c0 0.582-0.436 1.018-1.018 1.018h-3.636c-0.436-0.145-0.873-0.582-0.873-1.164zM150.982 29.673h-16c-0.582 0-1.018-0.436-1.018-1.018v-25.018c0-0.582 0.436-1.018 1.018-1.018h16c0.582 0 1.018 0.436 1.018 1.018v2.764c0 0.582-0.436 1.018-1.018 1.018h-10.618c-0.436 0-0.727 0.291-0.727 0.727v4.945c0 0.436 0.291 0.727 0.727 0.727h9.891c0.582 0 1.018 0.436 1.018 1.018v2.473c0 0.582-0.436 1.018-1.018 1.018h-9.891c-0.436 0-0.727 0.291-0.727 0.727v5.527c0 0.436 0.291 0.727 0.727 0.727h10.618c0.582 0 1.018 0.436 1.018 1.018v2.764c0 0.145-0.436 0.582-1.018 0.582z"></path>
<path fill="#ff5a30" style="fill: var(--color2, #ff5a30)" d="M171.2 14.109l-9.018-11.782c-0.582-0.582-1.309-0.873-2.036-0.873s-1.455 0.291-2.036 0.873c-1.018 1.164-1.018 2.909 0 4.073l7.127 9.6-7.127 9.6c-1.018 1.164-1.018 2.909 0 4.073 0.582 0.582 1.309 0.873 2.036 0.873s1.455-0.291 2.036-0.873l9.018-11.782c1.018-0.873 1.018-2.618 0-3.782zM175.044 14.109l9.018-11.782c0.582-0.582 1.309-0.873 2.036-0.873s1.455 0.291 2.036 0.873c1.018 1.164 1.018 2.909 0 4.073l-7.127 9.6 7.127 9.6c1.018 1.164 1.018 2.909 0 4.073-0.582 0.582-1.309 0.873-2.036 0.873s-1.455-0.291-2.036-0.873l-9.018-11.782c-1.018-0.873-1.018-2.618 0-3.782z"></path>
</symbol>
<symbol id="Messanger-32" viewBox="0 0 32 32">
<path d="M16 2.666c-7.364 0-13.334 5.527-13.334 12.345 0 3.885 1.938 7.35 4.968 9.613v4.709l4.54-2.492c1.144 0.328 2.458 0.517 3.816 0.517 0.003 0 0.006 0 0.010 0h-0.001c7.364 0 13.334-5.527 13.334-12.345 0-6.819-5.97-12.347-13.334-12.347zM17.324 19.291l-3.395-3.622-6.625 3.622 7.289-7.737 3.478 3.622 6.542-3.622-7.289 7.737z"></path>
</symbol>
<symbol id="Messanger-ft" viewBox="0 0 32 32">
<path d="M16 2.667c-7.363 0-13.333 5.527-13.333 12.345 0 3.884 1.939 7.349 4.968 9.613v4.708l4.54-2.492c1.212 0.336 2.495 0.517 3.825 0.517 7.364 0 13.333-5.527 13.333-12.345s-5.969-12.347-13.333-12.347zM17.325 19.292l-3.395-3.621-6.627 3.621 7.289-7.737 3.479 3.621 6.541-3.621-7.288 7.737z"></path>
</symbol>
<symbol id="Minus" viewBox="0 0 32 32">
<path d="M1.333 16c0-0.736 0.597-1.333 1.333-1.333v0 2.667c-0.736 0-1.333-0.597-1.333-1.333v0zM29.333 16v1.333h-26.667v-2.667h26.667v1.333zM29.333 16v1.333c0.736 0 1.333-0.597 1.333-1.333s-0.597-1.333-1.333-1.333v0 1.333z"></path>
</symbol>
<symbol id="off" viewBox="0 0 32 32">
<path d="M19.2 24.933c0.934 0.666 2.134 0.133 2.134-1.067v-6l-4.934 4.933 2.8 2.134zM27.6 7.066c-0.235-0.247-0.566-0.4-0.933-0.4s-0.698 0.153-0.932 0.399l-4.401 4.401v-3.333c0-1.067-1.334-1.734-2.134-1.067l-3.733 3.067c-0.533 0.266-1.067 0.533-1.733 0.533h-3.067c-1.467 0-2.667 1.2-2.667 2.667v5.333c0 1.467 1.2 2.667 2.667 2.667h0.8l-4.4 4.4c-0.246 0.235-0.399 0.566-0.399 0.933s0.153 0.698 0.399 0.932l0 0c0.235 0.247 0.567 0.4 0.934 0.4s0.698-0.153 0.933-0.399l0-0 18.666-18.666c0.247-0.235 0.401-0.566 0.401-0.934s-0.154-0.698-0.4-0.933l-0.001-0z"></path>
</symbol>
<symbol id="close" viewBox="0 0 32 32">
<path fill="none" stroke="#fff" style="stroke: var(--color1, #fff)" stroke-linejoin="miter" stroke-linecap="butt" stroke-miterlimit="4" stroke-width="2" d="M2.52 2l26.96 28M2 29.48l28-26.96"></path>
</symbol>
<symbol id="Plus" viewBox="0 0 32 32">
<path d="M16 1.333c0.736 0 1.333 0.597 1.333 1.333v0 12h12c0.736 0 1.333 0.597 1.333 1.333s-0.597 1.333-1.333 1.333v0h-12v12c0 0.736-0.597 1.333-1.333 1.333s-1.333-0.597-1.333-1.333v0-12h-12c-0.736 0-1.333-0.597-1.333-1.333s0.597-1.333 1.333-1.333v0h12v-12c0-0.736 0.597-1.333 1.333-1.333v0z"></path>
</symbol>
<symbol id="Right" viewBox="0 0 32 32">
<path d="M19.724 9.057c0.241-0.241 0.575-0.39 0.943-0.39s0.701 0.149 0.943 0.39l6 6c0.241 0.241 0.39 0.575 0.39 0.943s-0.149 0.701-0.39 0.943l-6 6c-0.24 0.232-0.566 0.374-0.926 0.374-0.736 0-1.333-0.597-1.333-1.333 0-0.36 0.143-0.687 0.375-0.927l3.724-3.724h-18.115c-0.736 0-1.333-0.597-1.333-1.333s0.597-1.333 1.333-1.333v0h18.115l-3.724-3.724c-0.241-0.241-0.39-0.575-0.39-0.943s0.149-0.701 0.39-0.943v0z"></path>
</symbol>
<symbol id="share-arrow-icon" viewBox="0 0 32 32">
<path d="M2.197 14.735l11.475-12.54v7.482h2.438c7.565 0 13.696 6.112 13.696 13.651v3.964l-1.084-1.182c-3.572-3.888-8.68-6.315-14.354-6.315-0.002 0-0.004 0-0.006 0h-0.689v7.48l-11.475-12.54z"></path>
</symbol>
<symbol id="Twitter-32" viewBox="0 0 32 32">
<path d="M30 7.696c-0.961 0.42-2.076 0.725-3.243 0.861l-0.055 0.005c1.176-0.675 2.067-1.733 2.513-3.001l0.012-0.039c-1.053 0.607-2.276 1.070-3.575 1.322l-0.075 0.012c-1.061-1.073-2.533-1.737-4.16-1.737-0.012 0-0.023 0-0.035 0h0.002c-3.172 0-5.744 2.463-5.744 5.499 0 0.43 0.051 0.85 0.15 1.253-4.774-0.23-9.006-2.42-11.84-5.747-0.487 0.785-0.776 1.737-0.776 2.756 0 0.003 0 0.006 0 0.009v-0.001c0 1.908 1.015 3.592 2.555 4.577-0.957-0.030-1.848-0.282-2.634-0.706l0.032 0.016v0.068c0 2.664 1.98 4.887 4.607 5.393-0.454 0.122-0.976 0.193-1.514 0.193h-0c-0.37 0-0.73-0.035-1.081-0.102 0.731 2.186 2.852 3.776 5.364 3.82-1.964 1.474-4.442 2.35-7.133 2.35-0.464 0-0.92-0.027-1.37-0.076 2.495 1.554 5.523 2.475 8.767 2.475 0.013 0 0.026 0 0.040-0h-0.002c10.567 0 16.342-8.38 16.342-15.648l-0.019-0.712c1.131-0.778 2.084-1.721 2.849-2.806l0.024-0.035z"></path>
</symbol>
<symbol id="Twitter-ft" viewBox="0 0 32 32">
<path d="M30 7.696c-0.961 0.42-2.076 0.725-3.243 0.861l-0.055 0.005c1.176-0.675 2.068-1.733 2.513-3.001l0.012-0.039c-1.053 0.606-2.276 1.069-3.574 1.321l-0.075 0.012c-1.061-1.072-2.532-1.736-4.159-1.736-0.012 0-0.024 0-0.036 0h0.002c-3.172 0-5.744 2.463-5.744 5.499 0 0.431 0.051 0.851 0.149 1.253-4.773-0.231-9.005-2.42-11.839-5.747-0.488 0.785-0.777 1.738-0.777 2.758 0 0.002 0 0.004 0 0.006v-0c0 1.908 1.016 3.592 2.555 4.577-0.956-0.031-1.847-0.283-2.632-0.706l0.032 0.016v0.069c0 2.663 1.98 4.887 4.605 5.392-0.48 0.124-0.988 0.193-1.513 0.193-0.382-0-0.755-0.037-1.116-0.109l0.036 0.006c0.731 2.187 2.851 3.776 5.364 3.82-1.951 1.468-4.415 2.351-7.085 2.351-0.017 0-0.034-0-0.051-0h0.003c-0.464 0-0.92-0.027-1.371-0.076 2.494 1.554 5.523 2.475 8.766 2.475 0.013 0 0.027-0 0.040-0h-0.002c10.567 0 16.343-8.38 16.343-15.648l-0.020-0.712c1.131-0.778 2.084-1.72 2.85-2.805l0.024-0.035z"></path>
</symbol>
<symbol id="Twitter-tm" viewBox="0 0 32 32">
<path d="M30 7.696c-0.961 0.419-2.076 0.724-3.242 0.86l-0.055 0.005c1.176-0.675 2.067-1.733 2.513-3.001l0.012-0.039c-1.053 0.607-2.276 1.070-3.575 1.322l-0.075 0.012c-1.061-1.073-2.533-1.738-4.16-1.738-0.011 0-0.023 0-0.034 0h0.002c-3.173 0-5.744 2.464-5.744 5.499 0 0.43 0.048 0.851 0.147 1.253-4.773-0.229-9.005-2.419-11.837-5.747-0.487 0.785-0.776 1.737-0.776 2.756 0 0.003 0 0.006 0 0.009v-0c0 1.909 1.014 3.592 2.554 4.576-0.956-0.030-1.848-0.281-2.633-0.704l0.032 0.016v0.067c0 2.664 1.981 4.888 4.608 5.392-0.482 0.125-0.989 0.194-1.514 0.194-0.371 0-0.73-0.035-1.082-0.102 0.731 2.187 2.851 3.776 5.365 3.821-1.951 1.468-4.415 2.351-7.085 2.351-0.017 0-0.035-0-0.052-0h0.003c-0.483-0.001-0.959-0.028-1.428-0.081l0.058 0.005c2.494 1.553 5.522 2.474 8.764 2.474 0.014 0 0.028-0 0.043-0h-0.002c10.566 0 16.341-8.379 16.341-15.648l-0.019-0.71c1.131-0.779 2.083-1.722 2.848-2.806l0.024-0.035z"></path>
</symbol>
<symbol id="fb" viewBox="0 0 16 32">
<path fill="#fff" style="fill: var(--color1, #fff)" d="M14.143 15.972h-4.034v14.865h-6.112v-14.865h-2.907v-5.224h2.907v-3.381c0-2.418 1.142-6.203 6.166-6.203l4.527 0.019v5.071h-3.285c-0.539 0-1.296 0.271-1.296 1.424v3.075h4.567l-0.534 5.219z"></path>
</symbol>
<symbol id="Twitter" viewBox="0 0 32 32">
<path d="M30 7.696c-0.961 0.42-2.076 0.725-3.243 0.861l-0.055 0.005c1.176-0.675 2.068-1.733 2.513-3.001l0.012-0.039c-1.053 0.606-2.276 1.069-3.574 1.321l-0.075 0.012c-1.061-1.072-2.532-1.736-4.159-1.736-0.012 0-0.024 0-0.036 0h0.002c-3.172 0-5.744 2.463-5.744 5.499 0 0.431 0.051 0.851 0.149 1.253-4.773-0.231-9.005-2.42-11.839-5.747-0.488 0.785-0.777 1.738-0.777 2.758 0 0.002 0 0.004 0 0.006v-0c0 1.908 1.016 3.592 2.555 4.577-0.956-0.031-1.847-0.283-2.632-0.706l0.032 0.016v0.069c0 2.663 1.98 4.887 4.605 5.392-0.48 0.124-0.988 0.193-1.513 0.193-0.382-0-0.755-0.037-1.116-0.109l0.036 0.006c0.731 2.187 2.851 3.776 5.364 3.82-1.951 1.468-4.415 2.351-7.085 2.351-0.017 0-0.034-0-0.051-0h0.003c-0.464 0-0.92-0.027-1.371-0.076 2.494 1.554 5.523 2.475 8.766 2.475 0.013 0 0.027-0 0.040-0h-0.002c10.567 0 16.343-8.38 16.343-15.648l-0.020-0.712c1.131-0.778 2.084-1.72 2.85-2.805l0.024-0.035z"></path>
</symbol>
<symbol id="up-btn-icon" viewBox="0 0 32 32">
<path d="M9.834 18.966c-0.312-0.312-0.312-0.819 0-1.131l5.6-5.6c0.312-0.312 0.819-0.312 1.131 0l5.6 5.6c0.312 0.312 0.312 0.819 0 1.131s-0.819 0.312-1.131 0l-5.034-5.034-5.034 5.034c-0.312 0.312-0.819 0.312-1.131 0z"></path>
</symbol>
<symbol id="Whatsapp-32" viewBox="0 0 32 32">
<path d="M29.333 15.656c0 7.174-5.86 12.99-13.091 12.99-2.296 0-4.452-0.587-6.328-1.616l-7.248 2.303 2.363-6.97c-1.18-1.906-1.879-4.217-1.879-6.691 0-0.006 0-0.011 0-0.017v0.001c0-7.174 5.861-12.99 13.092-12.99 7.23 0 13.090 5.816 13.090 12.99zM16.242 4.735c-6.070 0-11.007 4.899-11.007 10.92 0 2.39 0.78 4.604 2.097 6.404l-1.375 4.056 4.23-1.344c1.701 1.132 3.791 1.806 6.039 1.806 0.006 0 0.011 0 0.017 0h-0.001c6.069 0 11.006-4.899 11.006-10.92 0-6.022-4.937-10.922-11.006-10.922zM22.852 18.648c-0.080-0.133-0.294-0.213-0.615-0.372s-1.899-0.93-2.192-1.035c-0.295-0.107-0.51-0.16-0.723 0.159s-0.828 1.035-1.016 1.248c-0.187 0.213-0.374 0.24-0.695 0.080s-1.355-0.496-2.58-1.58c-0.954-0.844-1.599-1.886-1.786-2.205s-0.020-0.49 0.141-0.65c0.145-0.142 0.321-0.371 0.482-0.557s0.214-0.318 0.32-0.531c0.108-0.213 0.054-0.398-0.027-0.558s-0.722-1.726-0.99-2.364c-0.266-0.637-0.533-0.53-0.721-0.53-0.187 0-0.401-0.027-0.615-0.027s-0.562 0.080-0.856 0.398c-0.294 0.319-1.123 1.090-1.123 2.656s1.15 3.080 1.31 3.293c0.16 0.212 2.22 3.531 5.482 4.806s3.262 0.85 3.85 0.796c0.589-0.053 1.899-0.77 2.167-1.513 0.267-0.744 0.267-1.382 0.187-1.514z"></path>
</symbol>
<symbol id="Whatsapp-ft" viewBox="0 0 32 32">
<path d="M29.333 15.656c0 7.175-5.86 12.991-13.091 12.991-0.006 0-0.014 0-0.022 0-2.313 0-4.486-0.599-6.373-1.65l0.067 0.034-7.248 2.303 2.363-6.969c-1.18-1.906-1.879-4.216-1.879-6.691 0-0.006 0-0.011 0-0.017v0.001c0-7.176 5.863-12.991 13.092-12.991 7.231 0 13.091 5.816 13.091 12.989zM16.243 4.736c-6.069 0-11.007 4.899-11.007 10.92 0 2.391 0.779 4.603 2.097 6.404l-1.376 4.056 4.229-1.345c1.701 1.132 3.792 1.807 6.040 1.807 0.006 0 0.011 0 0.017 0h-0.001c6.068 0 11.007-4.899 11.007-10.92 0-6.023-4.937-10.921-11.007-10.921zM22.853 18.648c-0.080-0.133-0.295-0.213-0.616-0.371-0.32-0.16-1.899-0.931-2.192-1.036-0.293-0.107-0.509-0.16-0.723 0.16-0.213 0.317-0.828 1.035-1.016 1.247-0.187 0.213-0.373 0.24-0.696 0.080-0.32-0.159-1.353-0.495-2.58-1.58-0.953-0.844-1.597-1.885-1.785-2.204-0.187-0.32-0.019-0.491 0.141-0.649 0.144-0.143 0.32-0.372 0.481-0.557 0.16-0.187 0.213-0.32 0.32-0.532 0.108-0.213 0.055-0.397-0.027-0.557-0.080-0.16-0.721-1.727-0.989-2.364-0.267-0.637-0.533-0.531-0.721-0.531-0.187 0-0.4-0.027-0.615-0.027-0.213 0-0.563 0.080-0.856 0.399s-1.123 1.088-1.123 2.655c0 1.567 1.149 3.080 1.309 3.293 0.16 0.212 2.22 3.532 5.481 4.807 3.263 1.275 3.263 0.849 3.852 0.796 0.587-0.053 1.897-0.771 2.167-1.513 0.267-0.744 0.267-1.381 0.187-1.515z"></path>
</symbol>
<symbol id="YouTube-32" viewBox="0 0 32 32">
<path d="M28.52 5.486c1.376 0.382 2.438 1.444 2.813 2.792l0.007 0.028c0.686 2.505 0.66 7.724 0.66 7.724s0 5.192-0.66 7.697c-0.382 1.376-1.444 2.438-2.792 2.813l-0.028 0.007c-2.504 0.659-12.52 0.659-12.52 0.659s-9.99 0-12.52-0.685c-1.377-0.382-2.44-1.444-2.815-2.793l-0.007-0.028c-0.658-2.479-0.658-7.698-0.658-7.698s0-5.193 0.659-7.696c0.369-1.371 1.476-2.478 2.82-2.847 2.504-0.659 12.521-0.659 12.521-0.659s10.017 0 12.521 0.686zM21.14 16.003l-8.33 4.798v-9.595l8.33 4.797z"></path>
</symbol>
<symbol id="YouTube-ft" viewBox="0 0 32 32">
<path d="M28.52 5.485c1.377 0.382 2.439 1.444 2.815 2.792l0.007 0.028c0.685 2.504 0.659 7.723 0.659 7.723s0 5.193-0.659 7.697c-0.382 1.376-1.445 2.438-2.793 2.813l-0.028 0.007c-2.504 0.66-12.52 0.66-12.52 0.66s-9.991 0-12.52-0.685c-1.377-0.382-2.44-1.444-2.815-2.793l-0.007-0.028c-0.659-2.477-0.659-7.697-0.659-7.697s0-5.192 0.659-7.695c0.389-1.38 1.447-2.447 2.792-2.841l0.029-0.007c2.504-0.659 12.52-0.659 12.52-0.659s10.017 0 12.521 0.685zM21.14 16.003l-8.329 4.797v-9.595l8.329 4.797z"></path>
</symbol>
</defs>
</svg>
